HIERARCHY
ROOT Hips
{
	OFFSET 0.000000 0.000000 0.000000 
	CHANNELS 6 Xposition Yposition Zposition Zrotation Yrotation Xrotation
	JOINT LeftUpLeg
	{
		OFFSET 1.363060 -1.794630 0.839290 
		CHANNELS 3 Zrotation Yrotation Xrotation
		JOINT LeftLeg
		{
			OFFSET 2.448110 -6.726130 0.000000 
			CHANNELS 3 Zrotation Yrotation Xrotation
			JOINT LeftFoot
			{
				OFFSET 2.562200 -7.039590 0.000000 
				CHANNELS 3 Zrotation Yrotation Xrotation
				JOINT LeftToeBase
				{
					OFFSET 0.157640 -0.433110 2.322550 
					CHANNELS 3 Zrotation Yrotation Xrotation
					End Site
					{
						OFFSET 0.000000 0.000000 0.000000 
					}
				}
			}
		}
	}
	JOINT RightUpLeg
	{
		OFFSET -1.305520 -1.794630 0.839290 
		CHANNELS 3 Zrotation Yrotation Xrotation
		JOINT RightLeg
		{
			OFFSET -2.542530 -6.985550 0.000000 
			CHANNELS 3 Zrotation Yrotation Xrotation
			JOINT RightFoot
			{
				OFFSET -2.568260 -7.056230 0.000000 
				CHANNELS 3 Zrotation Yrotation Xrotation
				JOINT RightToeBase
				{
					OFFSET -0.164730 -0.452590 2.363150 
					CHANNELS 3 Zrotation Yrotation Xrotation
					End Site
					{
						OFFSET 0.000000 0.000000 0.000000 
					}
				}
			}
		}
	}
	JOINT Spine
	{
		OFFSET 0.028270 2.035590 -0.193380 
		CHANNELS 3 Zrotation Yrotation Xrotation
		JOINT Spine1
		{
			OFFSET 0.056720 2.048850 -0.042750 
			CHANNELS 3 Zrotation Yrotation Xrotation
			JOINT Neck1
			{
				OFFSET -0.054170 1.746240 0.172020 
				CHANNELS 3 Zrotation Yrotation Xrotation
				JOINT Head
				{
					OFFSET 0.104070 1.761360 -0.123970 
					CHANNELS 3 Zrotation Yrotation Xrotation
					End Site
					{
						OFFSET 0.000000 0.000000 0.000000 
					}
				}
			}
			JOINT LeftArm
			{
				OFFSET 3.362410 1.200890 -0.311210 
				CHANNELS 3 Zrotation Yrotation Xrotation
				JOINT LeftForeArm
				{
					OFFSET 4.983000 -0.000000 -0.000000 
					CHANNELS 3 Zrotation Yrotation Xrotation
					JOINT LeftHand
					{
						OFFSET 3.483560 -0.000000 -0.000000 
						CHANNELS 3 Zrotation Yrotation Xrotation
						JOINT LeftHandIndex1
						{
							OFFSET 0.715260 -0.000000 -0.000000 
							CHANNELS 3 Zrotation Yrotation Xrotation
							End Site
							{
								OFFSET 0.000000 0.000000 0.000000 
							}
						}
					}
				}
			}
			JOINT RightArm
			{
				OFFSET -3.136600 1.374050 -0.404650 
				CHANNELS 3 Zrotation Yrotation Xrotation
				JOINT RightForeArm
				{
					OFFSET -5.241900 -0.000000 -0.000000 
					CHANNELS 3 Zrotation Yrotation Xrotation
					JOINT RightHand
					{
						OFFSET -3.444170 -0.000000 -0.000000 
						CHANNELS 3 Zrotation Yrotation Xrotation
						JOINT RightHandIndex1
						{
							OFFSET -0.622530 -0.000000 -0.000000 
							CHANNELS 3 Zrotation Yrotation Xrotation
							End Site
							{
								OFFSET 0.000000 0.000000 0.000000 
							}
						}
					}
				}
			}
		}
	}
}
MOTION
Frames: 15
Frame Time: 0.041667
6.270361 16.553865 22.450517 -2.050477 -4.336413 7.203188 -6.626654 10.656263 -33.696608 11.973786 19.068328 61.934234 -0.893077 6.402430 2.811416 0.392400 -4.022300 -11.139500 13.179884 -7.071376 -35.602687 -10.711889 -19.627549 61.789404 -9.233945 16.642495 1.427771 -0.406200 4.091500 -11.334200 0.929852 -0.668520 -4.794775 -0.720935 -0.201790 -2.671955 5.092927 -0.765252 8.034331 2.109100 -0.472000 10.385200 -44.835017 -35.263737 14.577886 78.572667 -49.978292 -62.656373 0.962187 -1.618138 -5.345856 -7.125000 0.000000 0.000000 27.597351 38.835136 17.303594 -72.400764 47.511972 -52.579551 -2.095450 1.910345 -15.445207 7.125000 0.000000 0.000000 
6.274769 16.555373 22.453069 -2.032316 -4.294791 7.187795 -6.664745 10.689837 -33.699512 11.967833 19.065435 61.922432 -0.925178 6.458376 2.812278 0.413600 -4.128100 -11.437500 13.131221 -7.149360 -35.605603 -10.726418 -19.625122 61.807436 -9.270398 16.756136 1.449066 -0.428000 4.198800 -11.636600 0.932058 -0.677727 -4.792036 -0.728852 -0.204435 -2.653634 5.050936 -0.729590 8.045644 2.066200 -0.459400 10.372200 -44.943938 -35.309957 14.727074 78.504694 -49.964769 -62.531792 0.958863 -1.628088 -5.360719 -7.125000 0.000000 0.000000 27.592648 38.847355 17.370258 -72.319756 47.505478 -52.468750 -2.095651 1.919328 -15.431058 7.125000 0.000000 0.000000 
6.277553 16.556185 22.453533 -2.025452 -4.273731 7.167177 -6.680224 10.733444 -33.712564 11.969992 19.064669 61.924371 -0.918188 6.444942 2.846364 0.419800 -4.158700 -11.523500 13.099038 -7.172273 -35.589574 -10.718946 -19.618735 61.788814 -9.298376 16.863027 1.521851 -0.439300 4.253100 -11.789800 0.936702 -0.682674 -4.792373 -0.720123 -0.205129 -2.652699 5.006881 -0.694377 8.052750 2.011100 -0.445600 10.386600 -45.022503 -35.343241 14.847439 78.440762 -49.944073 -62.434763 0.958685 -1.624514 -5.362049 -7.125000 0.000000 0.000000 27.581990 38.872818 17.439189 -72.246309 47.490585 -52.358619 -2.094827 1.931404 -15.356580 7.125000 0.000000 0.000000 
6.280452 16.558273 22.455273 -2.012695 -4.248869 7.162905 -6.694950 10.757996 -33.723262 11.971392 19.065835 61.926429 -0.907067 6.422511 2.901676 0.429700 -4.206900 -11.659500 13.059321 -7.189157 -35.552550 -10.720597 -19.611330 61.760749 -9.335345 16.928091 1.447774 -0.451000 4.308700 -11.946700 0.938452 -0.680212 -4.790875 -0.708917 -0.202204 -2.643142 4.994216 -0.656965 8.054417 2.005400 -0.431500 10.376300 -45.092664 -35.384086 14.982774 78.382420 -49.928054 -62.325605 0.956773 -1.635415 -5.264249 -7.125000 0.000000 0.000000 27.543566 38.869375 17.486727 -72.152148 47.481967 -52.245397 -2.098290 1.936012 -15.336744 7.125000 0.000000 0.000000 
6.283468 16.560477 22.456897 -2.001017 -4.221529 7.156151 -6.709250 10.781821 -33.734299 11.973262 19.067147 61.929503 -0.898592 6.404783 2.954339 0.438400 -4.248600 -11.777100 13.024406 -7.213771 -35.523146 -10.713009 -19.601718 61.723544 -9.362226 16.989611 1.444358 -0.463500 4.367100 -12.111800 0.941293 -0.681391 -4.789064 -0.696039 -0.200959 -2.627599 4.971825 -0.627364 8.058476 1.984500 -0.420900 10.373200 -45.159984 -35.431566 15.106476 78.317579 -49.909477 -62.215530 0.955445 -1.642896 -5.196234 -7.125000 0.000000 0.000000 27.510011 38.882887 17.528447 -72.071069 47.472839 -52.141881 -2.100585 1.943408 -15.315301 7.125000 0.000000 0.000000 
6.286136 16.563028 22.458520 -1.993029 -4.191909 7.153218 -6.715350 10.795905 -33.746134 11.975879 19.069262 61.932820 -0.884284 6.375683 3.023519 0.444900 -4.279800 -11.865100 12.998553 -7.233811 -35.492473 -10.701324 -19.590717 61.678308 -9.381416 17.024663 1.438066 -0.473800 4.414600 -12.246100 0.944050 -0.682140 -4.787824 -0.681456 -0.199620 -2.615628 4.955209 -0.603954 8.061333 1.970800 -0.413200 10.371500 -45.216653 -35.479994 15.223768 78.257569 -49.890367 -62.111443 0.954480 -1.650848 -5.109112 -7.125000 0.000000 0.000000 27.472043 38.896353 17.560640 -71.995098 47.463380 -52.047311 -2.103774 1.949903 -15.300712 7.125000 0.000000 0.000000 
6.288803 16.565812 22.460028 -1.989311 -4.158158 7.153980 -6.713959 10.797855 -33.756694 11.978534 19.071900 61.934583 -0.867817 6.342309 3.104166 0.451000 -4.308500 -11.946100 12.982914 -7.253587 -35.466423 -10.689308 -19.580152 61.635673 -9.391731 17.033457 1.431541 -0.481800 4.451300 -12.350000 0.946576 -0.683187 -4.786921 -0.668317 -0.198789 -2.605503 4.943270 -0.587737 8.063196 1.962500 -0.408400 10.370000 -45.260668 -35.530907 15.331084 78.200854 -49.870574 -62.012550 0.953896 -1.659393 -5.009589 -7.125000 0.000000 0.000000 27.429161 38.907967 17.580752 -71.922856 47.454076 -51.961520 -2.107702 1.955253 -15.291312 7.125000 0.000000 0.000000 
6.291471 16.568596 22.461304 -1.990327 -4.121807 7.155861 -6.705074 10.788142 -33.765106 11.981454 19.074773 61.936459 -0.850352 6.306958 3.186897 0.457300 -4.338100 -12.030000 12.978282 -7.272524 -35.448572 -10.677390 -19.570858 61.600301 -9.391642 17.019666 1.438535 -0.485900 4.469900 -12.402700 0.948881 -0.684776 -4.786940 -0.658177 -0.198545 -2.602759 4.934316 -0.579407 8.064126 1.956400 -0.406800 10.371600 -45.291560 -35.581606 15.424354 78.145665 -49.849049 -61.919513 0.953924 -1.667179 -4.905930 -7.125000 0.000000 0.000000 27.386216 38.918084 17.590007 -71.863407 47.444696 -51.893556 -2.112067 1.959411 -15.281347 7.125000 0.000000 0.000000 
6.294255 16.571031 22.462348 -1.994434 -4.083668 7.156367 -6.691043 10.767372 -33.767906 11.983455 19.077521 61.937296 -0.828832 6.264975 3.263898 0.463000 -4.364500 -12.104500 12.981123 -7.292140 -35.439583 -10.668178 -19.563966 61.578145 -9.382637 16.989303 1.458422 -0.485900 4.469600 -12.401800 0.950599 -0.686335 -4.787786 -0.652945 -0.198871 -2.608507 4.928047 -0.576865 8.064177 1.952400 -0.407300 10.374400 -45.310406 -35.631628 15.502686 78.093422 -49.826367 -61.834296 0.954620 -1.673842 -4.806996 -7.125000 0.000000 0.000000 27.344727 38.924645 17.589066 -71.817513 47.435823 -51.844160 -2.116298 1.962469 -15.271460 7.125000 0.000000 0.000000 
6.297270 16.572771 22.463160 -1.999648 -4.048397 7.153978 -6.675729 10.740402 -33.764173 11.984258 19.079711 61.937236 -0.801086 6.212901 3.326328 0.467800 -4.386900 -12.167800 12.986482 -7.308152 -35.438880 -10.663327 -19.560640 61.573338 -9.366877 16.951323 1.492977 -0.481500 4.450000 -12.346100 0.951408 -0.686166 -4.788860 -0.654008 -0.198739 -2.618615 4.923273 -0.582265 8.063400 1.948300 -0.410800 10.379300 -45.314526 -35.684685 15.560047 78.038201 -49.801328 -61.752307 0.955942 -1.679350 -4.719102 -7.125000 0.000000 0.000000 27.302522 38.928525 17.572955 -71.783290 47.427464 -51.812509 -2.120323 1.964384 -15.264325 7.125000 0.000000 0.000000 
6.300518 16.574279 22.463972 -2.002157 -4.018714 7.146916 -6.663225 10.711676 -33.752121 11.982452 19.080719 61.934184 -0.767013 6.151436 3.366882 0.471800 -4.405400 -12.219900 12.988137 -7.318265 -35.443048 -10.662399 -19.560537 61.584109 -9.346001 16.911111 1.545066 -0.474800 4.419100 -12.258900 0.951443 -0.684148 -4.789985 -0.657226 -0.198037 -2.632757 4.919860 -0.590872 8.062764 1.945400 -0.415600 10.385200 -45.309142 -35.741493 15.594367 77.977386 -49.773651 -61.671511 0.957806 -1.683645 -4.655412 -7.125000 0.000000 0.000000 27.261509 38.930284 17.546928 -71.767591 47.420993 -51.803281 -2.123251 1.965604 -15.265616 7.125000 0.000000 0.000000 
6.303998 16.575091 22.464668 -1.999367 -3.998446 7.135236 -6.658096 10.686636 -33.733049 11.977758 19.080320 61.928131 -0.725542 6.078734 3.384994 0.473800 -4.414700 -12.246500 12.980274 -7.318044 -35.447775 -10.664879 -19.563636 61.607404 -9.322653 16.874652 1.613514 -0.466800 4.382200 -12.154300 0.950379 -0.678604 -4.790367 -0.663225 -0.195779 -2.643050 4.916764 -0.604464 8.063272 1.942600 -0.422400 10.394700 -45.292938 -35.808037 15.599643 77.910608 -49.743078 -61.591836 0.960171 -1.686983 -4.620952 -7.125000 0.000000 0.000000 27.215661 38.933224 17.504977 -71.760364 47.415341 -51.806251 -2.125122 1.966381 -15.275008 7.125000 0.000000 0.000000 
6.307709 16.575671 22.465480 -1.989886 -3.988635 7.120569 -6.662301 10.668843 -33.708297 11.970219 19.078512 61.918172 -0.679096 5.998850 3.384149 0.473900 -4.414900 -12.246900 12.959304 -7.302686 -35.447880 -10.669020 -19.568976 61.636810 -9.298884 16.843986 1.693264 -0.458500 4.343900 -12.046100 0.948518 -0.669538 -4.789612 -0.669105 -0.191607 -2.644901 4.912885 -0.620003 8.066052 1.938800 -0.430200 10.408300 -45.269592 -35.886647 15.574434 77.835791 -49.709681 -61.511190 0.962844 -1.689772 -4.621432 -7.125000 0.000000 0.000000 27.162895 38.937661 17.447306 -71.756814 47.410779 -51.816628 -2.126277 1.966643 -15.289511 7.125000 0.000000 0.000000 
6.311653 16.576135 22.466640 -1.975485 -3.988693 7.103059 -6.674994 10.659785 -33.680172 11.960501 19.075349 61.905430 -0.631237 5.917682 3.367350 0.472200 -4.407300 -12.225500 12.926276 -7.272497 -35.439761 -10.673629 -19.575403 61.666678 -9.276638 16.818460 1.773461 -0.450600 4.306800 -11.941400 0.945887 -0.657073 -4.788602 -0.675824 -0.185951 -2.644981 4.908607 -0.634366 8.071964 1.935500 -0.437800 10.426800 -45.248669 -35.972174 15.526764 77.758827 -49.674963 -61.433104 0.965455 -1.692131 -4.653977 -7.125000 0.000000 0.000000 27.108024 38.940949 17.384574 -71.754146 47.406085 -51.828801 -2.126505 1.966736 -15.305510 7.125000 0.000000 0.000000 
6.315712 16.576367 22.468147 -1.958203 -3.994488 7.084486 -6.694025 10.657753 -33.650649 11.949900 19.071659 61.891827 -0.583559 5.837583 3.342406 0.468900 -4.392000 -12.182200 12.884165 -7.231139 -35.421642 -10.676747 -19.581321 61.690111 -9.258443 16.801401 1.849228 -0.442100 4.266100 -11.826600 0.942957 -0.643170 -4.787636 -0.682979 -0.179545 -2.644231 4.902856 -0.644611 8.081790 1.932200 -0.444000 10.449600 -45.233368 -36.061581 15.461544 77.681383 -49.639894 -61.358504 0.967818 -1.694008 -4.714811 -7.125000 0.000000 0.000000 27.051731 38.943099 17.323296 -71.743883 47.400159 -51.831925 -2.125901 1.967092 -15.321359 7.125000 0.000000 0.000000 
